<svg xmlns="http://www.w3.org/2000/svg" version="1.1" xmlns:xlink="http://www.w3.org/1999/xlink" xmlns:svgjs="http://svgjs.dev/svgjs" width="1500" height="1500" viewBox="0 0 1500 1500"><rect width="1500" height="1500" fill="#000000"></rect><g transform="matrix(0.6666666666666666,0,0,0.6666666666666666,249.78425655976667,249.78425655976673)"><svg viewBox="0 0 343 343" data-background-color="#ffffff" preserveAspectRatio="xMidYMid meet" height="1500" width="1500" xmlns="http://www.w3.org/2000/svg" xmlns:xlink="http://www.w3.org/1999/xlink"><g id="tight-bounds" transform="matrix(1,0,0,1,0.0740000000000407,0.07400000000001228)"><svg viewBox="0 0 342.85155851775386 342.85155851775386" height="342.85155851775386" width="342.85155851775386"><g><svg></svg></g><g><svg viewBox="0 0 342.85155851775386 342.85155851775386" height="342.85155851775386" width="342.85155851775386"><g><path d="M0 171.426c0-94.676 76.75-171.426 171.426-171.426 94.676 0 171.426 76.75 171.426 171.426 0 94.676-76.75 171.426-171.426 171.426-94.676 0-171.426-76.75-171.426-171.426zM171.426 332.724c89.083 0 161.298-72.216 161.298-161.298 0-89.083-72.216-161.298-161.298-161.298-89.083 0-161.298 72.216-161.298 161.298 0 89.083 72.216 161.298 161.298 161.298z" data-fill-palette-color="tertiary" fill="#ffffff" stroke="transparent"></path><ellipse rx="164.56874808852186" ry="164.56874808852186" cx="171.42577925887693" cy="171.42577925887693" fill="#ffffff" stroke="transparent" stroke-width="0" fill-opacity="1" data-fill-palette-color="tertiary"></ellipse></g><g transform="matrix(1,0,0,1,64.84655864529837,115.27421351133634)"><svg viewBox="0 0 213.1584412271571 112.30313149508116" height="112.30313149508116" width="213.1584412271571"><g><svg viewBox="0 0 213.15844122715714 112.30313149508117" height="112.30313149508116" width="213.1584412271571"><g><svg viewBox="0 0 213.15844122715714 112.30313149508117" height="112.30313149508117" width="213.15844122715714"><g id="textblocktransform"><svg viewBox="0 0 213.15844122715714 112.30313149508117" height="112.30313149508117" width="213.15844122715714" id="textblock"><g><svg viewBox="0 0 213.15844122715714 112.30313149508117" height="112.30313149508117" width="213.15844122715714"><g transform="matrix(1,0,0,1,0,0)"><svg width="213.15844122715714" viewBox="3.6 -37.9 93.10000000000001 49.05" height="112.30313149508117" data-palette-color="#000000"><path d="M19.95-27.95L19.95-27.95Q24.3-27.95 26.98-25.58 29.65-23.2 29.65-17.9L29.65-17.9 29.65 0 21.25 0 21.25-15.55Q21.25-18.4 20.3-19.85 19.35-21.3 17.3-21.3L17.3-21.3Q14.25-21.3 13.15-19.03 12.05-16.75 12.05-12.5L12.05-12.5 12.05 0 3.6 0 3.6-27.45 10-27.45 11.15-23.9 11.55-23.9Q12.45-25.25 13.7-26.15 14.95-27.05 16.55-27.5 18.15-27.95 19.95-27.95ZM43.5 11.15L43.5-37.9 49.4-37.9 49.4 11.15 43.5 11.15ZM96.7-35.7L96.7 0 85.7 0 71.3-26.15 71.09-26.15Q71.2-24.7 71.27-23.03 71.34-21.35 71.42-19.68 71.5-18 71.55-16.5L71.55-16.5 71.55 0 63.95 0 63.95-35.7 74.9-35.7 89.25-9.85 89.4-9.85Q89.34-11.25 89.27-12.88 89.2-14.5 89.15-16.1 89.09-17.7 89.05-19.15L89.05-19.15 89.05-35.7 96.7-35.7Z" opacity="1" transform="matrix(1,0,0,1,0,0)" fill="#000000" class="wordmark-text-0" data-fill-palette-color="quaternary" id="text-0"></path></svg></g></svg></g></svg></g></svg></g></svg></g></svg></g></svg></g><defs></defs></svg><rect width="342.85155851775386" height="342.85155851775386" fill="none" stroke="none" visibility="hidden"></rect></g></svg></g></svg>