<svg xmlns="http://www.w3.org/2000/svg" viewBox="60 60 430 210"><path d="M19.95-27.95Q24.3-27.95 26.98-25.58 29.65-23.2 29.65-17.9L29.65 0 21.25 0 21.25-15.55Q21.25-18.4 20.3-19.85 19.35-21.3 17.3-21.3Q14.25-21.3 13.15-19.03 12.05-16.75 12.05-12.5L12.05 0 3.6 0 3.6-27.45 10-27.45 11.15-23.9 11.55-23.9Q12.45-25.25 13.7-26.15 14.95-27.05 16.55-27.5 18.15-27.95 19.95-27.95ZM43.5 11.15L43.5-37.9 49.4-37.9 49.4 11.15 43.5 11.15ZM96.7-35.7L96.7 0 85.7 0 71.3-26.15 71.09-26.15Q71.2-24.7 71.27-23.03 71.34-21.35 71.42-19.68 71.5-18 71.55-16.5L71.55 0 63.95 0 63.95-35.7 74.9-35.7 89.25-9.85 89.4-9.85Q89.34-11.25 89.27-12.88 89.2-14.5 89.15-16.1 89.09-17.7 89.05-19.15L89.05-35.7 96.7-35.7Z" transform="matrix(4.28,0,0,4.28,64.85,226.7)" fill="#0F0F0E"/></svg>
